<svg xmlns="http://www.w3.org/2000/svg" version="1.1" xmlns:xl="http://www.w3.org/1999/xlink"
  xmlns:dc="http://purl.org/dc/elements/1.1/" viewBox="385 206.67757 50.493656 60.1814" width="50.493656"
  height="60.1814">
  <defs />
  <metadata> Produced by OmniGraffle 7.19.1\n2023-11-22 08:10:24 +0000</metadata>
  <g id="Canvas_1" fill="none" stroke-opacity="1" stroke="none" fill-opacity="1" stroke-dasharray="none">
    <title>Canvas 1</title>
    <g id="Canvas_1_Layer_1">
      <title>Layer 1</title>
      <g id="Graphic_2">
        <rect x="385" y="206.67781" width="2.9651696" height="60.18116" fill="#22282b" />
      </g>
      <g id="Graphic_3">
        <path
          d="M 398.5924 266.85873 L 395.62724 266.85873 C 395.62724 265.41342 396.6549 262.83383 398.3479 258.75682 C 399.40123 256.22132 400.84334 252.74953 400.84334 251.7916 C 400.84334 250.83527 399.40123 247.3763 398.3487 244.85203 C 396.6549 240.78865 395.62724 238.21707 395.62724 236.77096 C 395.62724 235.32485 396.6549 232.74926 398.3479 228.67787 C 399.40123 226.14717 400.84334 222.6818 400.84334 221.72387 C 400.84334 220.76674 399.40123 217.30136 398.3479 214.77067 C 396.6549 210.69847 395.62724 208.12369 395.62724 206.67757 L 398.5924 206.67757 C 398.5924 207.6347 400.0345 211.10008 401.08703 213.63157 C 402.78084 217.70297 403.8085 220.27856 403.8085 221.72387 C 403.8085 223.16998 402.78084 225.74556 401.08703 229.81696 C 400.0345 232.34765 398.5924 235.81303 398.5924 236.77096 C 398.5924 237.72728 400.0345 241.18625 401.08623 243.71053 C 402.78084 247.7739 403.8085 250.3455 403.8085 251.7916 C 403.8085 253.2369 402.78084 255.8173 401.08703 259.8943 C 400.0345 262.429 398.5924 265.9008 398.5924 266.85873 Z"
          fill="#1d7028" />
      </g>
      <g id="Graphic_4">
        <path
          d="M 409.2193 266.85873 L 406.25415 266.85873 C 406.25415 263.7204 409.13595 260.94603 411.92396 258.26223 C 414.2647 256.0097 416.68475 253.6802 416.68475 251.80362 C 416.68475 249.92785 414.2655 247.60397 411.92477 245.35705 C 409.13675 242.67885 406.25415 239.91008 406.25415 236.77096 C 406.25415 233.63184 409.13595 230.85986 411.92396 228.17846 C 414.2647 225.92753 416.68475 223.60044 416.68475 221.72387 C 416.68475 219.8473 414.2647 217.5202 411.92396 215.27007 C 409.13595 212.58867 406.25415 209.8167 406.25415 206.67757 L 409.2193 206.67757 C 409.2193 208.55415 411.6402 210.88124 413.9801 213.13217 C 416.7681 215.81277 419.6507 218.58475 419.6507 221.72387 C 419.6507 224.86299 416.7681 227.63497 413.9801 230.31636 C 411.6402 232.5673 409.2193 234.89438 409.2193 236.77096 C 409.2193 238.64674 411.6394 240.9698 413.9793 243.21754 C 416.7673 245.89573 419.6507 248.6645 419.6507 251.80362 C 419.6507 254.94194 416.7681 257.71633 413.9801 260.39933 C 411.6402 262.65267 409.2193 264.98216 409.2193 266.85873 Z"
          fill="#17b726" />
      </g>
      <g id="Graphic_5">
        <path
          d="M 419.84615 266.85873 L 416.881 266.85873 C 416.881 262.1653 421.48385 259.95283 425.54483 258.0001 C 429.7629 255.97202 432.5277 254.44654 432.5277 251.81485 C 432.5277 249.18315 429.7629 247.65768 425.544 245.6296 C 421.48385 243.67686 416.881 241.4644 416.881 236.77096 C 416.881 232.0759 421.48385 229.86345 425.54483 227.91072 C 429.7629 225.88264 432.5277 224.35637 432.5277 221.72387 C 432.5277 219.09137 429.7621 217.5651 425.544 215.537 C 421.48305 213.58428 416.881 211.37102 416.881 206.67757 L 419.84615 206.67757 C 419.84615 209.30927 422.6109 210.83555 426.829 212.86443 C 430.89 214.81636 435.49366 217.02962 435.49366 221.72387 C 435.49366 226.41812 430.8908 228.63137 426.8298 230.5833 C 422.6117 232.61139 419.84615 234.13846 419.84615 236.77096 C 419.84615 239.40266 422.6109 240.92813 426.8298 242.957 C 430.89 244.90894 435.49366 247.1214 435.49366 251.81485 C 435.49366 256.5083 430.8908 258.72155 426.8298 260.67268 C 422.6109 262.70076 419.84615 264.22704 419.84615 266.85873 Z"
          fill="#12ff23" />
      </g>
    </g>
  </g>
</svg>